# xmcd CD database file
#
# Track frame offsets:
#	150
#	17861
#	32654
#	50909
#	68493
#	86335
#	107485
#	123606
#	140191
#	153328
#	169324
#	185824
#
# Disc length: 2708 seconds
#
# Revision: 0
# Processed by: cddbd v1.5.2PL0 Copyright (c) Steve Scherf et al.
# Submitted via: CDex 1.51
#
DISCID=a90a920c
DTITLE=Friend n Fellow - Crystal
DYEAR=2007
DGENRE=Jazz
TTITLE0=Crystal
TTITLE1=Golden Angel
TTITLE2=Beauty Queen
TTITLE3=Tomorrow
TTITLE4=Child of Spring
TTITLE5=Far away
TTITLE6=Flyin high
TTITLE7=8x3
TTITLE8=My favorite girl
TTITLE9=Melting away
TTITLE10=Red balloon
TTITLE11=elf
EXTD=YEAR: 2007
EXTT0=
EXTT1=
EXTT2=
EXTT3=
EXTT4=
EXTT5=
EXTT6=
EXTT7=
EXTT8=
EXTT9=
EXTT10=
EXTT11=
PLAYORDER=
